<svg width="17" height="10" viewBox="0 0 17 10" fill="none" xmlns="http://www.w3.org/2000/svg">
<path d="M3.94434 10H1.77734L1.79102 8.40039H3.94434C4.4821 8.40039 4.93555 8.27962 5.30469 8.03809C5.67383 7.79199 5.95182 7.43424 6.13867 6.96484C6.33008 6.49544 6.42578 5.92806 6.42578 5.2627V4.77734C6.42578 4.26693 6.37109 3.81803 6.26172 3.43066C6.1569 3.04329 5.99967 2.71745 5.79004 2.45312C5.5804 2.1888 5.32292 1.99056 5.01758 1.8584C4.71224 1.72168 4.36133 1.65332 3.96484 1.65332H1.73633V0.046875H3.96484C4.63021 0.046875 5.23861 0.160807 5.79004 0.388672C6.34603 0.611979 6.82682 0.933268 7.23242 1.35254C7.63802 1.77181 7.9502 2.27311 8.16895 2.85645C8.39225 3.43522 8.50391 4.08008 8.50391 4.79102V5.2627C8.50391 5.96908 8.39225 6.61393 8.16895 7.19727C7.9502 7.7806 7.63802 8.2819 7.23242 8.70117C6.83138 9.11589 6.35059 9.43717 5.79004 9.66504C5.23405 9.88835 4.61882 10 3.94434 10ZM2.93945 0.046875V10H0.888672V0.046875H2.93945ZM16.6729 8.40039V10H11.375V8.40039H16.6729ZM12.0449 0.046875V10H9.99414V0.046875H12.0449ZM15.9824 4.10059V5.65918H11.375V4.10059H15.9824ZM16.666 0.046875V1.65332H11.375V0.046875H16.666Z" fill="white"/>
</svg>
