<svg width="16" height="12" viewBox="0 0 16 12" fill="none" xmlns="http://www.w3.org/2000/svg">
<path d="M7.56738 9.40039V11H2.26953V9.40039H7.56738ZM2.93945 1.04688V11H0.888672V1.04688H2.93945ZM6.87695 5.10059V6.65918H2.26953V5.10059H6.87695ZM7.56055 1.04688V2.65332H2.26953V1.04688H7.56055ZM13.9453 8.39551C13.9453 8.21777 13.918 8.05827 13.8633 7.91699C13.8132 7.77116 13.7174 7.639 13.5762 7.52051C13.4349 7.39746 13.2367 7.27669 12.9814 7.1582C12.7262 7.03971 12.3958 6.91667 11.9902 6.78906C11.5391 6.64323 11.1107 6.47917 10.7051 6.29688C10.304 6.11458 9.94857 5.90267 9.63867 5.66113C9.33333 5.41504 9.0918 5.13021 8.91406 4.80664C8.74089 4.48307 8.6543 4.1071 8.6543 3.67871C8.6543 3.264 8.74544 2.88802 8.92773 2.55078C9.11003 2.20898 9.36523 1.91732 9.69336 1.67578C10.0215 1.42969 10.4089 1.24056 10.8555 1.1084C11.3066 0.976237 11.8011 0.910156 12.3389 0.910156C13.0726 0.910156 13.7129 1.04232 14.2598 1.30664C14.8066 1.57096 15.2305 1.93327 15.5312 2.39355C15.8366 2.85384 15.9893 3.38021 15.9893 3.97266H13.9521C13.9521 3.68099 13.8906 3.42578 13.7676 3.20703C13.6491 2.98372 13.4668 2.80827 13.2207 2.68066C12.9792 2.55306 12.6738 2.48926 12.3047 2.48926C11.9492 2.48926 11.653 2.54395 11.416 2.65332C11.179 2.75814 11.0013 2.90169 10.8828 3.08398C10.7643 3.26172 10.7051 3.46224 10.7051 3.68555C10.7051 3.85417 10.7461 4.00684 10.8281 4.14355C10.9147 4.28027 11.0423 4.40788 11.2109 4.52637C11.3796 4.64486 11.5869 4.75651 11.833 4.86133C12.0791 4.96615 12.3639 5.06868 12.6875 5.16895C13.2298 5.33301 13.7061 5.51758 14.1162 5.72266C14.5309 5.92773 14.8773 6.15788 15.1553 6.41309C15.4333 6.66829 15.6429 6.95768 15.7842 7.28125C15.9255 7.60482 15.9961 7.97168 15.9961 8.38184C15.9961 8.81478 15.9118 9.20215 15.7432 9.54395C15.5745 9.88574 15.3307 10.1751 15.0117 10.4121C14.6927 10.6491 14.3122 10.8291 13.8701 10.9521C13.4281 11.0752 12.9336 11.1367 12.3867 11.1367C11.8945 11.1367 11.4092 11.0729 10.9307 10.9453C10.4521 10.8132 10.0169 10.6149 9.625 10.3506C9.23763 10.0863 8.92773 9.74902 8.69531 9.33887C8.46289 8.92871 8.34668 8.44336 8.34668 7.88281H10.4043C10.4043 8.19271 10.4521 8.45475 10.5479 8.66895C10.6436 8.88314 10.778 9.05632 10.9512 9.18848C11.1289 9.32064 11.3385 9.41634 11.5801 9.47559C11.8262 9.53483 12.0951 9.56445 12.3867 9.56445C12.7422 9.56445 13.0339 9.51432 13.2617 9.41406C13.4941 9.3138 13.665 9.1748 13.7744 8.99707C13.8883 8.81934 13.9453 8.61882 13.9453 8.39551Z" fill="white"/>
</svg>
