<svg width="17" height="10" viewBox="0 0 17 10" fill="none" xmlns="http://www.w3.org/2000/svg">
<path d="M2.93945 0.046875V10H0.888672V0.046875H2.93945ZM6.9043 4.29883V5.89844H2.37891V4.29883H6.9043ZM7.38281 0.046875V1.65332H2.37891V0.046875H7.38281ZM8.57227 0.046875H12.2842C13.0452 0.046875 13.6992 0.160807 14.2461 0.388672C14.7975 0.616536 15.2214 0.953776 15.5176 1.40039C15.8138 1.84701 15.9619 2.39616 15.9619 3.04785C15.9619 3.58105 15.8708 4.03906 15.6885 4.42188C15.5107 4.80013 15.2578 5.11686 14.9297 5.37207C14.6061 5.62272 14.2256 5.82324 13.7881 5.97363L13.1387 6.31543H9.91211L9.89844 4.71582H12.2979C12.6579 4.71582 12.9564 4.65202 13.1934 4.52441C13.4303 4.39681 13.6081 4.21908 13.7266 3.99121C13.8496 3.76335 13.9111 3.49902 13.9111 3.19824C13.9111 2.87923 13.8519 2.60352 13.7334 2.37109C13.6149 2.13867 13.4349 1.96094 13.1934 1.83789C12.9518 1.71484 12.6488 1.65332 12.2842 1.65332H10.623V10H8.57227V0.046875ZM14.1367 10L11.8672 5.56348L14.0342 5.5498L16.3311 9.9043V10H14.1367Z" fill="white"/>
</svg>
