<svg width="18" height="10" viewBox="0 0 18 10" fill="none" xmlns="http://www.w3.org/2000/svg">
<path d="M4.76465 6.45215H2.22852V4.85254H4.76465C5.15658 4.85254 5.47559 4.78874 5.72168 4.66113C5.96777 4.52897 6.14779 4.34668 6.26172 4.11426C6.37565 3.88184 6.43262 3.61979 6.43262 3.32812C6.43262 3.0319 6.37565 2.75618 6.26172 2.50098C6.14779 2.24577 5.96777 2.04069 5.72168 1.88574C5.47559 1.73079 5.15658 1.65332 4.76465 1.65332H2.93945V10H0.888672V0.046875H4.76465C5.54395 0.046875 6.21159 0.188151 6.76758 0.470703C7.32812 0.748698 7.75651 1.13379 8.05273 1.62598C8.34896 2.11816 8.49707 2.68099 8.49707 3.31445C8.49707 3.95703 8.34896 4.51302 8.05273 4.98242C7.75651 5.45182 7.32812 5.81413 6.76758 6.06934C6.21159 6.32454 5.54395 6.45215 4.76465 6.45215ZM14.3623 0.046875V10H12.3184V0.046875H14.3623ZM17.4248 0.046875V1.65332H9.30371V0.046875H17.4248Z" fill="white"/>
</svg>
