<svg width="41" height="38" viewBox="0 0 41 38" fill="none" xmlns="http://www.w3.org/2000/svg">
<path d="M21.8701 37V12.5007C29.8028 -1.24114 38.4027 6.2187 39.8068 12.5007C41.2109 18.7827 34.9297 29.1036 21.8701 37Z" fill="#004581" stroke="#004581"/>
<path fill-rule="evenodd" clip-rule="evenodd" d="M21.8139 36.959C8.80028 29.068 2.54327 18.7718 3.94492 12.5007C5.34831 6.22178 13.9405 -1.23383 21.87 12.4805C12.1072 -8.04594 1.75606 0.330112 0.226781 12.4839C-1.30072 24.6235 6.09403 29.0792 21.8139 36.959Z" fill="#004581"/>
<path d="M3.94515 12.5007L3.91545 12.4934L3.94515 12.5007ZM21.8141 36.959L21.8009 36.9877L21.8295 36.9314L21.8141 36.959ZM21.8702 12.4805L21.8441 12.497L21.8975 12.4664L21.8702 12.4805ZM0.227013 12.4839L0.196768 12.4797L0.227013 12.4839ZM3.91545 12.4934C3.21166 15.6423 4.43136 19.7938 7.44922 24.1411C10.4679 28.4897 15.2891 33.0393 21.7988 36.9866L21.8295 36.9314C15.3256 32.9877 10.5114 28.4437 7.49863 24.1037C4.48497 19.7624 3.27699 15.6303 3.97486 12.508L3.91545 12.4934ZM21.8963 12.4641C19.9122 9.03251 17.885 6.92219 15.9364 5.78714C13.9871 4.65169 12.1177 4.49292 10.4525 4.96238C7.12447 5.90062 4.61905 9.34549 3.91545 12.4934L3.97486 12.508C4.67465 9.37697 7.16705 5.9546 10.4684 5.02389C12.1178 4.55888 13.9709 4.71521 15.9067 5.84279C17.8431 6.97075 19.8635 9.07138 21.8441 12.497L21.8963 12.4641ZM21.8975 12.4664C19.4557 7.33247 16.9757 4.00258 14.6035 2.08713C12.2306 0.17115 9.9642 -0.330359 7.95358 0.196222C5.9441 0.722517 4.19606 2.27422 2.85537 4.45223C1.51454 6.63043 0.579576 9.43743 0.196768 12.4797L0.257258 12.488C0.639089 9.45349 1.57149 6.65579 2.90669 4.48668C4.24202 2.31739 5.97866 0.779155 7.96847 0.258026C9.95712 -0.262815 12.2046 0.23077 14.5662 2.13754C16.9283 4.04486 19.4033 7.36541 21.8429 12.4947L21.8975 12.4664ZM0.196768 12.4797C-0.185555 15.5182 -0.00983407 18.0779 0.716064 20.3316C1.44201 22.5854 2.71751 24.5309 4.53173 26.3419C8.15863 29.9625 13.9422 33.0484 21.8009 36.9877L21.8274 36.9303C13.9662 32.9898 8.19243 29.908 4.57388 26.2959C2.76536 24.4905 1.4961 22.5534 0.773889 20.3113C0.051639 18.069 -0.124169 15.5194 0.257258 12.488L0.196768 12.4797Z" fill="#004581"/>
</svg>
